# ProBuilder 4.1.0
# https://unity3d.com/unity/features/worldbuilding/probuilder
# 12/10/2019 9:17:41 PM

mtllib ./RoboCarBodyMesh.mtl
o RoboCarBodyMesh

g RoboCarMesh
v -2.019248 -0.5 4.418358
v -2.019248 0 4.418358
v -0.5310313 0 4.418358
v -0.5310313 -0.5 4.418358
v -2.019248 1.06207 4.86706
v -0.487061 1.06207 4.86706
v 1.103269 1.06207 4.86706
v 1.103269 0 4.418358
v 1.103269 -0.5 4.418358
v -2.019248 1.74538 1.060215
v -0.487061 1.74538 1.060215
v -2.019248 1.248477 -0.5
v -0.487061 1.248477 -0.5
v 1.103269 1.248477 -0.5
v 1.103269 1.74538 1.060215
v -2.019248 0 -0.5
v -0.4869282 0 -0.5
v -2.019248 -0.5 -0.5
v -0.4869282 -0.5 -0.5
v 1.103269 -0.5 -0.5
v 1.103269 0 -0.5
v -2.019248 -0.5 1.152038
v 0 -0.5 0
v 1.103269 -0.5 1.040133
v 1.103269 0 1.040133
v -2.019248 0 1.152038

vt 0 0
vt 0 0.5
vt 0.5 0.5
vt 0.5 0
vt 0 1
vt 0.5 1
vt 1 1
vt 1 0.5
vt 1 0

vn 0 0 1
vn 0 -0.3891721 0.921165
vn 0 0.9842699 0.1766717
vn 0 0.9528425 -0.3034651
vn 0 0 -1
vn 0 -1 0
vn 1 0 0
vn -1 0 0

usemtl Default-Material
f 3/3/1 2/2/1 1/1/1 4/4/1
f 6/6/2 5/5/2 2/2/2 3/3/2
f 7/7/2 6/6/2 3/3/2 8/8/2
f 8/8/1 3/3/1 4/4/1 9/9/1
f 5/1/3 6/4/3 11/3/3 10/2/3
f 10/2/4 11/3/4 13/6/4 12/5/4
f 11/3/4 15/8/4 14/7/4 13/6/4
f 6/4/3 7/9/3 15/8/3 11/3/3
f 16/2/5 12/1/5 13/4/5 17/3/5
f 18/5/5 16/2/5 17/3/5 19/6/5
f 19/6/5 17/3/5 21/8/5 20/7/5
f 17/3/5 13/4/5 14/9/5 21/8/5
f 19/4/6 23/3/6 22/2/6 18/1/6
f 23/3/6 4/6/6 1/5/6 22/2/6
f 24/8/6 9/7/6 4/6/6 23/3/6
f 20/9/6 24/8/6 23/3/6 19/4/6
f 24/4/7 25/3/7 8/2/7 9/1/7
f 25/3/7 15/6/7 7/5/7 8/2/7
f 21/8/7 14/7/7 15/6/7 25/3/7
f 20/9/7 21/8/7 25/3/7 24/4/7
f 26/3/8 16/2/8 18/1/8 22/4/8
f 10/6/8 12/5/8 16/2/8 26/3/8
f 5/7/8 10/6/8 26/3/8 2/8/8
f 2/8/8 26/3/8 22/4/8 1/9/8

